<svg width="144" height="110" viewBox="0 0 144 110" fill="none" xmlns="http://www.w3.org/2000/svg">
<g clip-path="url(#clip0_930_8241)">
<g clip-path="url(#clip1_930_8241)">
<path d="M0.5 107.326V1.50503H38.4452L42.631 17.0994H15.9923V46.6211H31.1941L35.3443 62.2502H15.9923V107.36L0.5 107.326ZM133.931 55.2287L125.921 47.2115C123.397 44.7053 121.152 41.9463 119.221 38.9802C117.404 36.2792 116.424 33.1235 116.399 29.8921V21.8287C116.324 20.1792 116.901 18.5646 118.011 17.3194C118.555 16.7691 119.207 16.3315 119.927 16.0326C120.648 15.7337 121.423 15.5796 122.206 15.5796C122.989 15.5796 123.764 15.7337 124.485 16.0326C125.206 16.3315 125.857 16.7691 126.401 17.3194C127.514 18.5706 128.093 20.1906 128.02 21.846V35.507L143.435 25.2381L143.5 22.9748C143.5 16.1096 141.541 10.5641 137.624 6.33847C133.707 2.11282 128.569 0 122.209 0C115.755 0 110.59 2.08967 106.717 6.26901C102.843 10.4484 100.905 16.0169 100.901 22.9748V31.3161C100.856 35.8472 101.804 40.3351 103.681 44.4793C105.345 48.2428 107.68 51.6883 110.577 54.6556L118.581 62.6612C121.105 65.1713 123.337 67.9453 125.239 70.933C127.037 73.6619 128.001 76.8343 128.02 80.0789V88.154C128.093 89.8094 127.514 91.4294 126.401 92.6806C125.857 93.2301 125.205 93.6671 124.484 93.9656C123.764 94.2641 122.989 94.4179 122.206 94.4179C121.423 94.4179 120.649 94.2641 119.928 93.9656C119.207 93.6671 118.556 93.2301 118.011 92.6806C116.901 91.4286 116.324 89.8087 116.399 88.154V84.2756V73.3353L100.901 83.5521V87.0252C100.901 93.8982 102.859 99.4455 106.776 103.667C110.693 107.889 115.832 110 122.191 110C128.65 110 133.814 107.908 137.684 103.725C141.553 99.542 143.49 93.9599 143.494 86.9789V78.5971C143.536 74.0641 142.607 69.5725 140.767 65.4107C139.129 61.6398 136.807 58.1885 133.913 55.2229L133.931 55.2287ZM71.3448 107.372L99.5073 1.55133H82.9774L71.3448 45.2607L61.5443 1.55133H45.0204L63.993 72.8722L54.9691 107.372H71.3448Z" fill="#160D0D"/>
</g>
</g>
<defs>
<clipPath id="clip0_930_8241">
<rect width="143" height="110" fill="white" transform="translate(0.5)"/>
</clipPath>
<clipPath id="clip1_930_8241">
<rect width="143" height="110" fill="white" transform="translate(0.5)"/>
</clipPath>
</defs>
</svg>
